<svg id="visual" viewBox="0 0 1920 1080" width="1920" height="1080" xmlns="http://www.w3.org/2000/svg" xmlns:xlink="http://www.w3.org/1999/xlink" version="1.1"><rect x="0" y="0" width="1920" height="1080" fill="#fff"></rect><path d="M0 201L53.3 212.5C106.7 224 213.3 247 320 258.2C426.7 269.3 533.3 268.7 640 255.5C746.7 242.3 853.3 216.7 960 206.7C1066.7 196.7 1173.3 202.3 1280 203.8C1386.7 205.3 1493.3 202.7 1600 211.5C1706.7 220.3 1813.3 240.7 1866.7 250.8L1920 261L1920 0L1866.7 0C1813.3 0 1706.7 0 1600 0C1493.3 0 1386.7 0 1280 0C1173.3 0 1066.7 0 960 0C853.3 0 746.7 0 640 0C533.3 0 426.7 0 320 0C213.3 0 106.7 0 53.3 0L0 0Z" fill="#38d3d9"></path><path d="M0 183L53.3 184.7C106.7 186.3 213.3 189.7 320 183.3C426.7 177 533.3 161 640 164.2C746.7 167.3 853.3 189.7 960 197.5C1066.7 205.3 1173.3 198.7 1280 193.2C1386.7 187.7 1493.3 183.3 1600 175.2C1706.7 167 1813.3 155 1866.7 149L1920 143L1920 0L1866.7 0C1813.3 0 1706.7 0 1600 0C1493.3 0 1386.7 0 1280 0C1173.3 0 1066.7 0 960 0C853.3 0 746.7 0 640 0C533.3 0 426.7 0 320 0C213.3 0 106.7 0 53.3 0L0 0Z" fill="#5cdfd4"></path><path d="M0 132L53.3 129.2C106.7 126.3 213.3 120.7 320 124.5C426.7 128.3 533.3 141.7 640 142.3C746.7 143 853.3 131 960 120.3C1066.7 109.7 1173.3 100.3 1280 103.5C1386.7 106.7 1493.3 122.3 1600 125.7C1706.7 129 1813.3 120 1866.7 115.5L1920 111L1920 0L1866.7 0C1813.3 0 1706.7 0 1600 0C1493.3 0 1386.7 0 1280 0C1173.3 0 1066.7 0 960 0C853.3 0 746.7 0 640 0C533.3 0 426.7 0 320 0C213.3 0 106.7 0 53.3 0L0 0Z" fill="#7ceace"></path><path d="M0 32L53.3 40.5C106.7 49 213.3 66 320 72.3C426.7 78.7 533.3 74.3 640 72.3C746.7 70.3 853.3 70.7 960 66C1066.7 61.3 1173.3 51.7 1280 46C1386.7 40.3 1493.3 38.7 1600 47.3C1706.7 56 1813.3 75 1866.7 84.5L1920 94L1920 0L1866.7 0C1813.3 0 1706.7 0 1600 0C1493.3 0 1386.7 0 1280 0C1173.3 0 1066.7 0 960 0C853.3 0 746.7 0 640 0C533.3 0 426.7 0 320 0C213.3 0 106.7 0 53.3 0L0 0Z" fill="#9cf4c9"></path></svg>